<svg width="735" height="203" viewBox="0 0 736 133" fill="none" xmlns="http://www.w3.org/2000/svg">
<g filter="url(#filter0_d_10_246)">
<rect x="24" width="702" height="183" rx="32" fill="white" shape-rendering="crispEdges"/>
<path d="M196.874 37.5455H193.201V48.5227H193.048L185.513 37.5455H182.275V55H185.965V44.0142H186.093L193.687 55H196.874V37.5455ZM199.855 55H203.486V41.9091H199.855V55ZM201.679 40.2216C202.761 40.2216 203.648 39.3949 203.648 38.3807C203.648 37.375 202.761 36.5483 201.679 36.5483C200.605 36.5483 199.719 37.375 199.719 38.3807C199.719 39.3949 200.605 40.2216 201.679 40.2216ZM210.025 47.4318C210.033 45.7443 211.039 44.7557 212.505 44.7557C213.962 44.7557 214.84 45.7102 214.832 47.3125V55H218.462V46.6648C218.462 43.6136 216.673 41.7386 213.945 41.7386C212.002 41.7386 210.596 42.6932 210.008 44.2188H209.854V41.9091H206.394V55H210.025V47.4318ZM227.222 60.1818C230.963 60.1818 233.622 58.4773 233.622 55.1278V41.9091H230.017V44.108H229.881C229.395 43.0426 228.33 41.7386 226.139 41.7386C223.267 41.7386 220.838 43.9716 220.838 48.429C220.838 52.7841 223.199 54.8125 226.148 54.8125C228.236 54.8125 229.403 53.7642 229.881 52.6818H230.034V55.0767C230.034 56.875 228.884 57.5739 227.307 57.5739C225.705 57.5739 224.895 56.875 224.597 56.0824L221.239 56.5341C221.673 58.5966 223.693 60.1818 227.222 60.1818ZM227.298 52.0852C225.517 52.0852 224.545 50.6705 224.545 48.4119C224.545 46.1875 225.5 44.6278 227.298 44.6278C229.062 44.6278 230.051 46.1193 230.051 48.4119C230.051 50.7216 229.045 52.0852 227.298 52.0852ZM244.906 49.4261C244.915 51.1818 243.713 52.1023 242.409 52.1023C241.037 52.1023 240.151 51.1392 240.142 49.5966V41.9091H236.511V50.2443C236.52 53.304 238.31 55.1705 240.943 55.1705C242.912 55.1705 244.327 54.1562 244.915 52.6222H245.051V55H248.537V41.9091H244.906V49.4261ZM241.233 40.2216H243.798L246.398 36.3438H243.04L241.233 40.2216ZM255.072 47.4318C255.08 45.7443 256.086 44.7557 257.552 44.7557C259.009 44.7557 259.887 45.7102 259.879 47.3125V55H263.509V46.6648C263.509 43.6136 261.719 41.7386 258.992 41.7386C257.049 41.7386 255.643 42.6932 255.055 44.2188H254.901V41.9091H251.441V55H255.072V47.4318ZM271.925 55H275.556V47.142C275.556 45.6932 276.477 44.7301 277.687 44.7301C278.88 44.7301 279.681 45.5483 279.681 46.8352V55H283.201V47.0057C283.201 45.6506 283.977 44.7301 285.298 44.7301C286.457 44.7301 287.326 45.4545 287.326 46.9119V55H290.948V46.196C290.948 43.358 289.261 41.7386 286.823 41.7386C284.906 41.7386 283.414 42.7188 282.877 44.2188H282.741C282.323 42.7017 280.985 41.7386 279.187 41.7386C277.423 41.7386 276.085 42.6761 275.539 44.2188H275.386V41.9091H271.925V55ZM299.782 55.2557C303.021 55.2557 305.202 53.679 305.714 51.25L302.356 51.0284C301.989 52.0256 301.052 52.5455 299.842 52.5455C298.026 52.5455 296.876 51.3438 296.876 49.392V49.3835H305.79V48.3864C305.79 43.9375 303.097 41.7386 299.637 41.7386C295.785 41.7386 293.288 44.4744 293.288 48.5142C293.288 52.6648 295.751 55.2557 299.782 55.2557ZM296.876 47.1335C296.952 45.642 298.086 44.4489 299.697 44.4489C301.273 44.4489 302.364 45.5739 302.373 47.1335H296.876ZM311.79 47.4318C311.799 45.7443 312.805 44.7557 314.271 44.7557C315.728 44.7557 316.606 45.7102 316.597 47.3125V55H320.228V46.6648C320.228 43.6136 318.438 41.7386 315.711 41.7386C313.768 41.7386 312.362 42.6932 311.773 44.2188H311.62V41.9091H308.16V55H311.79V47.4318ZM333.982 45.642C333.658 43.2301 331.714 41.7386 328.408 41.7386C325.058 41.7386 322.851 43.2898 322.859 45.8125C322.851 47.7727 324.087 49.0426 326.643 49.554L328.911 50.0057C330.053 50.2358 330.572 50.6534 330.589 51.3097C330.572 52.0852 329.729 52.6392 328.459 52.6392C327.163 52.6392 326.303 52.0852 326.081 51.0199L322.51 51.2074C322.851 53.7131 324.982 55.2557 328.45 55.2557C331.842 55.2557 334.271 53.5256 334.28 50.9432C334.271 49.0511 333.036 47.9176 330.496 47.3977L328.126 46.9205C326.908 46.6562 326.456 46.2386 326.464 45.608C326.456 44.8239 327.342 44.3125 328.467 44.3125C329.729 44.3125 330.479 45.0028 330.658 45.8466L333.982 45.642ZM340.299 55.2472C342.234 55.2472 343.487 54.4034 344.126 53.1847H344.228V55H347.671V46.1705C347.671 43.0511 345.029 41.7386 342.114 41.7386C338.978 41.7386 336.915 43.2386 336.413 45.625L339.771 45.8977C340.018 45.0284 340.793 44.3892 342.097 44.3892C343.333 44.3892 344.04 45.0114 344.04 46.0852V46.1364C344.04 46.9801 343.146 47.0909 340.87 47.3125C338.279 47.5511 335.952 48.4205 335.952 51.3438C335.952 53.9347 337.802 55.2472 340.299 55.2472ZM341.339 52.7415C340.222 52.7415 339.421 52.2216 339.421 51.2244C339.421 50.2017 340.265 49.6989 341.543 49.5199C342.336 49.4091 343.631 49.2216 344.066 48.9318V50.321C344.066 51.6932 342.933 52.7415 341.339 52.7415ZM350.488 41.9091V55.5881C350.488 56.5767 350.07 57.071 348.903 57.071C348.749 57.071 348.613 57.071 348.425 57.054V59.892C348.69 59.9006 348.903 59.9091 349.158 59.9091C352.244 59.9091 354.119 58.6818 354.119 55.6477V41.9091H350.488ZM352.295 40.2216C353.377 40.2216 354.263 39.3949 354.263 38.3807C354.263 37.375 353.377 36.5483 352.295 36.5483C351.221 36.5483 350.335 37.375 350.335 38.3807C350.335 39.3949 351.221 40.2216 352.295 40.2216ZM362.993 55.2557C366.232 55.2557 368.413 53.679 368.925 51.25L365.567 51.0284C365.2 52.0256 364.263 52.5455 363.053 52.5455C361.237 52.5455 360.087 51.3438 360.087 49.392V49.3835H369.001V48.3864C369.001 43.9375 366.308 41.7386 362.848 41.7386C358.996 41.7386 356.499 44.4744 356.499 48.5142C356.499 52.6648 358.962 55.2557 362.993 55.2557ZM360.087 47.1335C360.163 45.642 361.297 44.4489 362.908 44.4489C364.484 44.4489 365.575 45.5739 365.584 47.1335H360.087ZM383.965 41.9091H381.366V41.0312C381.366 40.1449 381.724 39.625 382.789 39.625C383.224 39.625 383.667 39.7188 383.957 39.8125L384.596 37.0852C384.144 36.9489 383.147 36.7273 382.031 36.7273C379.567 36.7273 377.735 38.1165 377.735 40.9631V41.9091H375.886V44.6364H377.735V55H381.366V44.6364H383.965V41.9091ZM394.578 49.4261C394.587 51.1818 393.385 52.1023 392.081 52.1023C390.709 52.1023 389.822 51.1392 389.814 49.5966V41.9091H386.183V50.2443C386.192 53.304 387.982 55.1705 390.615 55.1705C392.584 55.1705 393.999 54.1562 394.587 52.6222H394.723V55H398.209V41.9091H394.578V49.4261ZM407.079 55.2557C410.317 55.2557 412.499 53.679 413.011 51.25L409.653 51.0284C409.286 52.0256 408.349 52.5455 407.138 52.5455C405.323 52.5455 404.173 51.3438 404.173 49.392V49.3835H413.087V48.3864C413.087 43.9375 410.394 41.7386 406.934 41.7386C403.082 41.7386 400.585 44.4744 400.585 48.5142C400.585 52.6648 403.048 55.2557 407.079 55.2557ZM404.173 47.1335C404.249 45.642 405.383 44.4489 406.994 44.4489C408.57 44.4489 409.661 45.5739 409.67 47.1335H404.173ZM426.977 55.2557C430.216 55.2557 432.398 53.679 432.909 51.25L429.551 51.0284C429.185 52.0256 428.247 52.5455 427.037 52.5455C425.222 52.5455 424.071 51.3438 424.071 49.392V49.3835H432.986V48.3864C432.986 43.9375 430.293 41.7386 426.832 41.7386C422.98 41.7386 420.483 44.4744 420.483 48.5142C420.483 52.6648 422.946 55.2557 426.977 55.2557ZM424.071 47.1335C424.148 45.642 425.281 44.4489 426.892 44.4489C428.469 44.4489 429.56 45.5739 429.568 47.1335H424.071ZM438.986 47.4318C438.994 45.7443 440 44.7557 441.466 44.7557C442.923 44.7557 443.801 45.7102 443.793 47.3125V55H447.423V46.6648C447.423 43.6136 445.634 41.7386 442.906 41.7386C440.963 41.7386 439.557 42.6932 438.969 44.2188H438.815V41.9091H435.355V55H438.986V47.4318ZM456.2 55.2557C459.685 55.2557 461.876 53.2102 462.046 50.2017H458.62C458.407 51.5994 457.487 52.3835 456.242 52.3835C454.546 52.3835 453.447 50.9602 453.447 48.4545C453.447 45.983 454.555 44.5682 456.242 44.5682C457.572 44.5682 458.424 45.446 458.62 46.75H462.046C461.893 43.7244 459.6 41.7386 456.183 41.7386C452.211 41.7386 449.756 44.4915 449.756 48.5057C449.756 52.4858 452.168 55.2557 456.2 55.2557ZM470.286 55.2557C474.257 55.2557 476.729 52.5369 476.729 48.5057C476.729 44.4489 474.257 41.7386 470.286 41.7386C466.314 41.7386 463.842 44.4489 463.842 48.5057C463.842 52.5369 466.314 55.2557 470.286 55.2557ZM470.303 52.4432C468.47 52.4432 467.533 50.7642 467.533 48.4801C467.533 46.196 468.47 44.5085 470.303 44.5085C472.101 44.5085 473.038 46.196 473.038 48.4801C473.038 50.7642 472.101 52.4432 470.303 52.4432ZM482.72 47.4318C482.729 45.7443 483.734 44.7557 485.2 44.7557C486.658 44.7557 487.536 45.7102 487.527 47.3125V55H491.158V46.6648C491.158 43.6136 489.368 41.7386 486.641 41.7386C484.697 41.7386 483.291 42.6932 482.703 44.2188H482.55V41.9091H479.089V55H482.72V47.4318ZM500.982 41.9091H498.519V38.7727H494.888V41.9091H493.099V44.6364H494.888V51.4545C494.871 54.0199 496.619 55.2898 499.252 55.179C500.19 55.1449 500.854 54.9574 501.221 54.8381L500.65 52.1364C500.471 52.1705 500.087 52.2557 499.746 52.2557C499.022 52.2557 498.519 51.983 498.519 50.9773V44.6364H500.982V41.9091ZM503.347 55H506.978V47.5938C506.978 45.983 508.154 44.875 509.756 44.875C510.259 44.875 510.95 44.9602 511.29 45.071V41.8494C510.967 41.7727 510.515 41.7216 510.148 41.7216C508.683 41.7216 507.481 42.5739 507.004 44.1932H506.867V41.9091H503.347V55ZM516.526 55.2472C518.46 55.2472 519.713 54.4034 520.352 53.1847H520.455V55H523.898V46.1705C523.898 43.0511 521.256 41.7386 518.341 41.7386C515.205 41.7386 513.142 43.2386 512.639 45.625L515.997 45.8977C516.244 45.0284 517.02 44.3892 518.324 44.3892C519.56 44.3892 520.267 45.0114 520.267 46.0852V46.1364C520.267 46.9801 519.372 47.0909 517.097 47.3125C514.506 47.5511 512.179 48.4205 512.179 51.3438C512.179 53.9347 514.028 55.2472 516.526 55.2472ZM517.565 52.7415C516.449 52.7415 515.648 52.2216 515.648 51.2244C515.648 50.2017 516.491 49.6989 517.77 49.5199C518.562 49.4091 519.858 49.2216 520.293 48.9318V50.321C520.293 51.6932 519.159 52.7415 517.565 52.7415ZM531.538 55.2131C533.652 55.2131 534.751 53.9943 535.254 52.9034H535.408V55H538.987V37.5455H535.365V44.108H535.254C534.768 43.0426 533.72 41.7386 531.53 41.7386C528.658 41.7386 526.229 43.9716 526.229 48.4716C526.229 52.8523 528.555 55.2131 531.538 55.2131ZM532.689 52.3239C530.908 52.3239 529.936 50.7386 529.936 48.4545C529.936 46.1875 530.891 44.6278 532.689 44.6278C534.453 44.6278 535.442 46.1193 535.442 48.4545C535.442 50.7898 534.436 52.3239 532.689 52.3239ZM547.887 55.2557C551.859 55.2557 554.33 52.5369 554.33 48.5057C554.33 44.4489 551.859 41.7386 547.887 41.7386C543.915 41.7386 541.444 44.4489 541.444 48.5057C541.444 52.5369 543.915 55.2557 547.887 55.2557ZM547.904 52.4432C546.072 52.4432 545.134 50.7642 545.134 48.4801C545.134 46.196 546.072 44.5085 547.904 44.5085C549.702 44.5085 550.64 46.196 550.64 48.4801C550.64 50.7642 549.702 52.4432 547.904 52.4432Z" fill="#343A40"/>
<path d="M171.654 83.3636H170.245V95H171.654V83.3636ZM175.638 89.75C175.638 88.2273 176.582 87.3636 177.866 87.3636C179.11 87.3636 179.866 88.1761 179.866 89.5455V95H181.207V89.4545C181.207 87.2273 180.019 86.1591 178.252 86.1591C176.934 86.1591 176.116 86.75 175.707 87.6364H175.593V86.2727H174.298V95H175.638V89.75ZM187.18 98.4545C189.271 98.4545 190.952 97.5 190.952 95.25V86.2727H189.657V87.6591H189.521C189.225 87.2045 188.68 86.1591 186.975 86.1591C184.771 86.1591 183.248 87.9091 183.248 90.5909C183.248 93.3182 184.839 94.8636 186.952 94.8636C188.657 94.8636 189.202 93.8636 189.498 93.3864H189.612V95.1591C189.612 96.6136 188.589 97.2727 187.18 97.2727C185.594 97.2727 185.038 96.4375 184.68 95.9545L183.612 96.7045C184.157 97.6193 185.231 98.4545 187.18 98.4545ZM187.134 93.6591C185.452 93.6591 184.589 92.3864 184.589 90.5682C184.589 88.7955 185.43 87.3636 187.134 87.3636C188.771 87.3636 189.634 88.6818 189.634 90.5682C189.634 92.5 188.748 93.6591 187.134 93.6591ZM193.407 95H194.748V89.4773C194.748 88.2955 195.68 87.4318 196.952 87.4318C197.31 87.4318 197.68 87.5 197.771 87.5227V86.1591C197.617 86.1477 197.265 86.1364 197.066 86.1364C196.021 86.1364 195.112 86.7273 194.793 87.5909H194.702V86.2727H193.407V95ZM202.754 95.1818C204.526 95.1818 205.822 94.2955 206.231 92.9773L204.935 92.6136C204.594 93.5227 203.805 93.9773 202.754 93.9773C201.18 93.9773 200.094 92.9602 200.032 91.0909H206.367V90.5227C206.367 87.2727 204.435 86.1591 202.617 86.1591C200.254 86.1591 198.685 88.0227 198.685 90.7045C198.685 93.3864 200.231 95.1818 202.754 95.1818ZM200.032 89.9318C200.123 88.5739 201.083 87.3636 202.617 87.3636C204.072 87.3636 205.004 88.4545 205.004 89.9318H200.032ZM214.589 88.2273C214.168 86.9886 213.225 86.1591 211.498 86.1591C209.657 86.1591 208.293 87.2045 208.293 88.6818C208.293 89.8864 209.009 90.6932 210.612 91.0682L212.066 91.4091C212.947 91.6136 213.362 92.0341 213.362 92.6364C213.362 93.3864 212.566 94 211.316 94C210.219 94 209.532 93.5284 209.293 92.5909L208.021 92.9091C208.333 94.392 209.555 95.1818 211.339 95.1818C213.367 95.1818 214.748 94.0739 214.748 92.5682C214.748 91.3523 213.987 90.5852 212.43 90.2045L211.134 89.8864C210.1 89.6307 209.634 89.2841 209.634 88.6136C209.634 87.8636 210.43 87.3182 211.498 87.3182C212.668 87.3182 213.151 87.9659 213.384 88.5682L214.589 88.2273ZM219.335 95.2045C220.857 95.2045 221.653 94.3864 221.925 93.8182H221.994V95H223.335V89.25C223.335 86.4773 221.221 86.1591 220.107 86.1591C218.789 86.1591 217.289 86.6136 216.607 88.2045L217.88 88.6591C218.175 88.0227 218.874 87.3409 220.153 87.3409C221.386 87.3409 221.994 87.9943 221.994 89.1136V89.1591C221.994 89.8068 221.335 89.75 219.744 89.9545C218.124 90.1648 216.357 90.5227 216.357 92.5227C216.357 94.2273 217.675 95.2045 219.335 95.2045ZM219.539 94C218.471 94 217.698 93.5227 217.698 92.5909C217.698 91.5682 218.63 91.25 219.675 91.1136C220.244 91.0455 221.766 90.8864 221.994 90.6136V91.8409C221.994 92.9318 221.13 94 219.539 94ZM233.941 95.1818C235.714 95.1818 237.009 94.2955 237.418 92.9773L236.123 92.6136C235.782 93.5227 234.992 93.9773 233.941 93.9773C232.367 93.9773 231.282 92.9602 231.219 91.0909H237.555V90.5227C237.555 87.2727 235.623 86.1591 233.805 86.1591C231.441 86.1591 229.873 88.0227 229.873 90.7045C229.873 93.3864 231.418 95.1818 233.941 95.1818ZM231.219 89.9318C231.31 88.5739 232.271 87.3636 233.805 87.3636C235.259 87.3636 236.191 88.4545 236.191 89.9318H231.219ZM240.935 83.3636H239.594V95H240.935V83.3636ZM251.687 86.2727H249.823V84.1818H248.482V86.2727H247.164V87.4091H248.482V92.8636C248.482 94.3864 249.71 95.1136 250.846 95.1136C251.346 95.1136 251.664 95.0227 251.846 94.9545L251.573 93.75C251.46 93.7727 251.278 93.8182 250.982 93.8182C250.391 93.8182 249.823 93.6364 249.823 92.5V87.4091H251.687V86.2727ZM257.269 95.1818C259.042 95.1818 260.337 94.2955 260.746 92.9773L259.451 92.6136C259.11 93.5227 258.32 93.9773 257.269 93.9773C255.695 93.9773 254.61 92.9602 254.548 91.0909H260.883V90.5227C260.883 87.2727 258.951 86.1591 257.133 86.1591C254.769 86.1591 253.201 88.0227 253.201 90.7045C253.201 93.3864 254.746 95.1818 257.269 95.1818ZM254.548 89.9318C254.638 88.5739 255.599 87.3636 257.133 87.3636C258.587 87.3636 259.519 88.4545 259.519 89.9318H254.548ZM263.688 86.2727H262.143L264.915 90.6364L262.143 95H263.688L265.779 91.6136L267.87 95H269.415L266.597 90.6364L269.415 86.2727H267.87L265.779 89.8409L263.688 86.2727ZM275.124 86.2727H273.261V84.1818H271.92V86.2727H270.602V87.4091H271.92V92.8636C271.92 94.3864 273.147 95.1136 274.283 95.1136C274.783 95.1136 275.102 95.0227 275.283 94.9545L275.011 93.75C274.897 93.7727 274.715 93.8182 274.42 93.8182C273.829 93.8182 273.261 93.6364 273.261 92.5V87.4091H275.124V86.2727ZM280.593 95.1818C282.957 95.1818 284.548 93.3864 284.548 90.6818C284.548 87.9545 282.957 86.1591 280.593 86.1591C278.229 86.1591 276.638 87.9545 276.638 90.6818C276.638 93.3864 278.229 95.1818 280.593 95.1818ZM280.593 93.9773C278.798 93.9773 277.979 92.4318 277.979 90.6818C277.979 88.9318 278.798 87.3636 280.593 87.3636C282.388 87.3636 283.207 88.9318 283.207 90.6818C283.207 92.4318 282.388 93.9773 280.593 93.9773ZM298.39 98.2727V86.2727H297.094V87.6591H296.935C296.64 87.2045 296.117 86.1591 294.413 86.1591C292.208 86.1591 290.685 87.9091 290.685 90.6591C290.685 93.4318 292.208 95.1818 294.39 95.1818C296.072 95.1818 296.64 94.1364 296.935 93.6591H297.049V98.2727H298.39ZM297.072 90.6364C297.072 92.6136 296.185 93.9773 294.572 93.9773C292.89 93.9773 292.026 92.5 292.026 90.6364C292.026 88.7955 292.867 87.3636 294.572 87.3636C296.208 87.3636 297.072 88.6818 297.072 90.6364ZM306.344 91.4318C306.344 93.0682 305.094 93.8182 304.094 93.8182C302.981 93.8182 302.185 93 302.185 91.7273V86.2727H300.844V91.8182C300.844 94.0455 302.026 95.1136 303.663 95.1136C304.981 95.1136 305.844 94.4091 306.254 93.5227H306.344V95H307.685V86.2727H306.344V91.4318ZM313.8 95.1818C315.573 95.1818 316.869 94.2955 317.278 92.9773L315.982 92.6136C315.641 93.5227 314.852 93.9773 313.8 93.9773C312.227 93.9773 311.141 92.9602 311.079 91.0909H317.414V90.5227C317.414 87.2727 315.482 86.1591 313.664 86.1591C311.3 86.1591 309.732 88.0227 309.732 90.7045C309.732 93.3864 311.278 95.1818 313.8 95.1818ZM311.079 89.9318C311.17 88.5739 312.13 87.3636 313.664 87.3636C315.119 87.3636 316.05 88.4545 316.05 89.9318H311.079ZM327.249 95.1818C328.931 95.1818 329.499 94.1364 329.795 93.6591H329.954V95H331.249V83.3636H329.908V87.6591H329.795C329.499 87.2045 328.977 86.1591 327.272 86.1591C325.067 86.1591 323.545 87.9091 323.545 90.6591C323.545 93.4318 325.067 95.1818 327.249 95.1818ZM327.431 93.9773C325.749 93.9773 324.886 92.5 324.886 90.6364C324.886 88.7955 325.727 87.3636 327.431 87.3636C329.067 87.3636 329.931 88.6818 329.931 90.6364C329.931 92.6136 329.045 93.9773 327.431 93.9773ZM337.55 95.1818C339.323 95.1818 340.619 94.2955 341.028 92.9773L339.732 92.6136C339.391 93.5227 338.602 93.9773 337.55 93.9773C335.977 93.9773 334.891 92.9602 334.829 91.0909H341.164V90.5227C341.164 87.2727 339.232 86.1591 337.414 86.1591C335.05 86.1591 333.482 88.0227 333.482 90.7045C333.482 93.3864 335.028 95.1818 337.55 95.1818ZM334.829 89.9318C334.92 88.5739 335.88 87.3636 337.414 87.3636C338.869 87.3636 339.8 88.4545 339.8 89.9318H334.829ZM349.386 88.2273C348.965 86.9886 348.022 86.1591 346.295 86.1591C344.454 86.1591 343.09 87.2045 343.09 88.6818C343.09 89.8864 343.806 90.6932 345.408 91.0682L346.863 91.4091C347.744 91.6136 348.158 92.0341 348.158 92.6364C348.158 93.3864 347.363 94 346.113 94C345.016 94 344.329 93.5284 344.09 92.5909L342.817 92.9091C343.13 94.392 344.352 95.1818 346.136 95.1818C348.164 95.1818 349.545 94.0739 349.545 92.5682C349.545 91.3523 348.783 90.5852 347.227 90.2045L345.931 89.8864C344.897 89.6307 344.431 89.2841 344.431 88.6136C344.431 87.8636 345.227 87.3182 346.295 87.3182C347.465 87.3182 347.948 87.9659 348.181 88.5682L349.386 88.2273ZM355.222 95.1818C356.995 95.1818 358.29 94.2955 358.7 92.9773L357.404 92.6136C357.063 93.5227 356.273 93.9773 355.222 93.9773C353.648 93.9773 352.563 92.9602 352.501 91.0909H358.836V90.5227C358.836 87.2727 356.904 86.1591 355.086 86.1591C352.722 86.1591 351.154 88.0227 351.154 90.7045C351.154 93.3864 352.7 95.1818 355.222 95.1818ZM352.501 89.9318C352.592 88.5739 353.552 87.3636 355.086 87.3636C356.54 87.3636 357.472 88.4545 357.472 89.9318H352.501ZM364.535 95.1818C366.308 95.1818 367.603 94.2955 368.012 92.9773L366.717 92.6136C366.376 93.5227 365.586 93.9773 364.535 93.9773C362.961 93.9773 361.876 92.9602 361.813 91.0909H368.148V90.5227C368.148 87.2727 366.217 86.1591 364.398 86.1591C362.035 86.1591 360.467 88.0227 360.467 90.7045C360.467 93.3864 362.012 95.1818 364.535 95.1818ZM361.813 89.9318C361.904 88.5739 362.864 87.3636 364.398 87.3636C365.853 87.3636 366.785 88.4545 366.785 89.9318H361.813ZM376.37 88.2273C375.95 86.9886 375.006 86.1591 373.279 86.1591C371.438 86.1591 370.075 87.2045 370.075 88.6818C370.075 89.8864 370.79 90.6932 372.393 91.0682L373.847 91.4091C374.728 91.6136 375.143 92.0341 375.143 92.6364C375.143 93.3864 374.347 94 373.097 94C372.001 94 371.313 93.5284 371.075 92.5909L369.802 92.9091C370.114 94.392 371.336 95.1818 373.12 95.1818C375.148 95.1818 376.529 94.0739 376.529 92.5682C376.529 91.3523 375.768 90.5852 374.211 90.2045L372.915 89.8864C371.881 89.6307 371.415 89.2841 371.415 88.6136C371.415 87.8636 372.211 87.3182 373.279 87.3182C374.45 87.3182 374.933 87.9659 375.165 88.5682L376.37 88.2273ZM386.707 95.1818C388.479 95.1818 389.775 94.2955 390.184 92.9773L388.888 92.6136C388.548 93.5227 387.758 93.9773 386.707 93.9773C385.133 93.9773 384.048 92.9602 383.985 91.0909H390.32V90.5227C390.32 87.2727 388.388 86.1591 386.57 86.1591C384.207 86.1591 382.638 88.0227 382.638 90.7045C382.638 93.3864 384.184 95.1818 386.707 95.1818ZM383.985 89.9318C384.076 88.5739 385.036 87.3636 386.57 87.3636C388.025 87.3636 388.957 88.4545 388.957 89.9318H383.985ZM393.701 89.75C393.701 88.2273 394.644 87.3636 395.928 87.3636C397.173 87.3636 397.928 88.1761 397.928 89.5455V95H399.269V89.4545C399.269 87.2273 398.082 86.1591 396.315 86.1591C394.996 86.1591 394.178 86.75 393.769 87.6364H393.656V86.2727H392.36V95H393.701V89.75ZM405.265 95.1818C407.197 95.1818 408.469 94 408.697 92.4545H407.356C407.106 93.4091 406.31 93.9773 405.265 93.9773C403.674 93.9773 402.651 92.6591 402.651 90.6364C402.651 88.6591 403.697 87.3636 405.265 87.3636C406.447 87.3636 407.151 88.0909 407.356 88.8864H408.697C408.469 87.25 407.083 86.1591 405.242 86.1591C402.879 86.1591 401.31 88.0227 401.31 90.6818C401.31 93.2955 402.81 95.1818 405.265 95.1818ZM410.657 95H411.998V89.4773C411.998 88.2955 412.93 87.4318 414.202 87.4318C414.56 87.4318 414.93 87.5 415.021 87.5227V86.1591C414.867 86.1477 414.515 86.1364 414.316 86.1364C413.271 86.1364 412.362 86.7273 412.043 87.5909H411.952V86.2727H410.657V95ZM416.61 95H417.951V86.2727H416.61V95ZM417.292 84.8182C417.815 84.8182 418.246 84.4091 418.246 83.9091C418.246 83.4091 417.815 83 417.292 83C416.769 83 416.337 83.4091 416.337 83.9091C416.337 84.4091 416.769 84.8182 417.292 84.8182ZM420.407 98.2727H421.748V93.6591H421.862C422.157 94.1364 422.725 95.1818 424.407 95.1818C426.589 95.1818 428.112 93.4318 428.112 90.6591C428.112 87.9091 426.589 86.1591 424.384 86.1591C422.68 86.1591 422.157 87.2045 421.862 87.6591H421.702V86.2727H420.407V98.2727ZM421.725 90.6364C421.725 88.6818 422.589 87.3636 424.225 87.3636C425.93 87.3636 426.771 88.7955 426.771 90.6364C426.771 92.5 425.907 93.9773 424.225 93.9773C422.612 93.9773 421.725 92.6136 421.725 90.6364ZM433.952 86.2727H432.089V84.1818H430.748V86.2727H429.43V87.4091H430.748V92.8636C430.748 94.3864 431.975 95.1136 433.112 95.1136C433.612 95.1136 433.93 95.0227 434.112 94.9545L433.839 93.75C433.725 93.7727 433.543 93.8182 433.248 93.8182C432.657 93.8182 432.089 93.6364 432.089 92.5V87.4091H433.952V86.2727ZM438.538 95.2045C440.06 95.2045 440.856 94.3864 441.129 93.8182H441.197V95H442.538V89.25C442.538 86.4773 440.424 86.1591 439.31 86.1591C437.992 86.1591 436.492 86.6136 435.81 88.2045L437.083 88.6591C437.379 88.0227 438.077 87.3409 439.356 87.3409C440.589 87.3409 441.197 87.9943 441.197 89.1136V89.1591C441.197 89.8068 440.538 89.75 438.947 89.9545C437.327 90.1648 435.56 90.5227 435.56 92.5227C435.56 94.2273 436.879 95.2045 438.538 95.2045ZM438.742 94C437.674 94 436.901 93.5227 436.901 92.5909C436.901 91.5682 437.833 91.25 438.879 91.1136C439.447 91.0455 440.969 90.8864 441.197 90.6136V91.8409C441.197 92.9318 440.333 94 438.742 94ZM444.985 95H446.326V89.4773C446.326 88.2955 447.258 87.4318 448.531 87.4318C448.888 87.4318 449.258 87.5 449.349 87.5227V86.1591C449.195 86.1477 448.843 86.1364 448.644 86.1364C447.599 86.1364 446.69 86.7273 446.371 87.5909H446.281V86.2727H444.985V95ZM458.984 95.1818C461.347 95.1818 462.938 93.3864 462.938 90.6818C462.938 87.9545 461.347 86.1591 458.984 86.1591C456.62 86.1591 455.029 87.9545 455.029 90.6818C455.029 93.3864 456.62 95.1818 458.984 95.1818ZM458.984 93.9773C457.188 93.9773 456.37 92.4318 456.37 90.6818C456.37 88.9318 457.188 87.3636 458.984 87.3636C460.779 87.3636 461.597 88.9318 461.597 90.6818C461.597 92.4318 460.779 93.9773 458.984 93.9773ZM472.781 95.1818C474.462 95.1818 475.031 94.1364 475.326 93.6591H475.485V95H476.781V83.3636H475.44V87.6591H475.326C475.031 87.2045 474.508 86.1591 472.803 86.1591C470.599 86.1591 469.076 87.9091 469.076 90.6591C469.076 93.4318 470.599 95.1818 472.781 95.1818ZM472.962 93.9773C471.281 93.9773 470.417 92.5 470.417 90.6364C470.417 88.7955 471.258 87.3636 472.962 87.3636C474.599 87.3636 475.462 88.6818 475.462 90.6364C475.462 92.6136 474.576 93.9773 472.962 93.9773ZM483.082 95.1818C484.854 95.1818 486.15 94.2955 486.559 92.9773L485.263 92.6136C484.923 93.5227 484.133 93.9773 483.082 93.9773C481.508 93.9773 480.423 92.9602 480.36 91.0909H486.695V90.5227C486.695 87.2727 484.763 86.1591 482.945 86.1591C480.582 86.1591 479.013 88.0227 479.013 90.7045C479.013 93.3864 480.559 95.1818 483.082 95.1818ZM480.36 89.9318C480.451 88.5739 481.411 87.3636 482.945 87.3636C484.4 87.3636 485.332 88.4545 485.332 89.9318H480.36ZM494.917 88.2273C494.496 86.9886 493.553 86.1591 491.826 86.1591C489.985 86.1591 488.621 87.2045 488.621 88.6818C488.621 89.8864 489.337 90.6932 490.94 91.0682L492.394 91.4091C493.275 91.6136 493.69 92.0341 493.69 92.6364C493.69 93.3864 492.894 94 491.644 94C490.548 94 489.86 93.5284 489.621 92.5909L488.349 92.9091C488.661 94.392 489.883 95.1818 491.667 95.1818C493.695 95.1818 495.076 94.0739 495.076 92.5682C495.076 91.3523 494.315 90.5852 492.758 90.2045L491.462 89.8864C490.428 89.6307 489.962 89.2841 489.962 88.6136C489.962 87.8636 490.758 87.3182 491.826 87.3182C492.996 87.3182 493.479 87.9659 493.712 88.5682L494.917 88.2273ZM500.754 95.1818C502.526 95.1818 503.822 94.2955 504.231 92.9773L502.935 92.6136C502.594 93.5227 501.805 93.9773 500.754 93.9773C499.18 93.9773 498.094 92.9602 498.032 91.0909H504.367V90.5227C504.367 87.2727 502.435 86.1591 500.617 86.1591C498.254 86.1591 496.685 88.0227 496.685 90.7045C496.685 93.3864 498.231 95.1818 500.754 95.1818ZM498.032 89.9318C498.123 88.5739 499.083 87.3636 500.617 87.3636C502.072 87.3636 503.004 88.4545 503.004 89.9318H498.032ZM507.748 89.75C507.748 88.2273 508.691 87.3636 509.975 87.3636C511.219 87.3636 511.975 88.1761 511.975 89.5455V95H513.316V89.4545C513.316 87.2273 512.129 86.1591 510.362 86.1591C509.043 86.1591 508.225 86.75 507.816 87.6364H507.702V86.2727H506.407V95H507.748V89.75ZM519.312 95.1818C521.244 95.1818 522.516 94 522.744 92.4545H521.403C521.153 93.4091 520.357 93.9773 519.312 93.9773C517.721 93.9773 516.698 92.6591 516.698 90.6364C516.698 88.6591 517.744 87.3636 519.312 87.3636C520.494 87.3636 521.198 88.0909 521.403 88.8864H522.744C522.516 87.25 521.13 86.1591 519.289 86.1591C516.925 86.1591 515.357 88.0227 515.357 90.6818C515.357 93.2955 516.857 95.1818 519.312 95.1818ZM524.704 95H526.045V89.4773C526.045 88.2955 526.977 87.4318 528.249 87.4318C528.607 87.4318 528.977 87.5 529.067 87.5227V86.1591C528.914 86.1477 528.562 86.1364 528.363 86.1364C527.317 86.1364 526.408 86.7273 526.09 87.5909H525.999V86.2727H524.704V95ZM530.657 95H531.998V86.2727H530.657V95ZM531.339 84.8182C531.862 84.8182 532.293 84.4091 532.293 83.9091C532.293 83.4091 531.862 83 531.339 83C530.816 83 530.384 83.4091 530.384 83.9091C530.384 84.4091 530.816 84.8182 531.339 84.8182ZM534.454 98.2727H535.795V93.6591H535.908C536.204 94.1364 536.772 95.1818 538.454 95.1818C540.636 95.1818 542.158 93.4318 542.158 90.6591C542.158 87.9091 540.636 86.1591 538.431 86.1591C536.727 86.1591 536.204 87.2045 535.908 87.6591H535.749V86.2727H534.454V98.2727ZM535.772 90.6364C535.772 88.6818 536.636 87.3636 538.272 87.3636C539.977 87.3636 540.817 88.7955 540.817 90.6364C540.817 92.5 539.954 93.9773 538.272 93.9773C536.658 93.9773 535.772 92.6136 535.772 90.6364ZM547.999 86.2727H546.136V84.1818H544.795V86.2727H543.477V87.4091H544.795V92.8636C544.795 94.3864 546.022 95.1136 547.158 95.1136C547.658 95.1136 547.977 95.0227 548.158 94.9545L547.886 93.75C547.772 93.7727 547.59 93.8182 547.295 93.8182C546.704 93.8182 546.136 93.6364 546.136 92.5V87.4091H547.999V86.2727ZM552.585 95.2045C554.107 95.2045 554.903 94.3864 555.175 93.8182H555.244V95H556.585V89.25C556.585 86.4773 554.471 86.1591 553.357 86.1591C552.039 86.1591 550.539 86.6136 549.857 88.2045L551.13 88.6591C551.425 88.0227 552.124 87.3409 553.403 87.3409C554.636 87.3409 555.244 87.9943 555.244 89.1136V89.1591C555.244 89.8068 554.585 89.75 552.994 89.9545C551.374 90.1648 549.607 90.5227 549.607 92.5227C549.607 94.2273 550.925 95.2045 552.585 95.2045ZM552.789 94C551.721 94 550.948 93.5227 550.948 92.5909C550.948 91.5682 551.88 91.25 552.925 91.1136C553.494 91.0455 555.016 90.8864 555.244 90.6136V91.8409C555.244 92.9318 554.38 94 552.789 94ZM559.032 95H560.373V89.4773C560.373 88.2955 561.305 87.4318 562.577 87.4318C562.935 87.4318 563.305 87.5 563.396 87.5227V86.1591C563.242 86.1477 562.89 86.1364 562.691 86.1364C561.646 86.1364 560.737 86.7273 560.418 87.5909H560.327V86.2727H559.032V95ZM564.962 95.0909C565.525 95.0909 565.985 94.6307 565.985 94.0682C565.985 93.5057 565.525 93.0455 564.962 93.0455C564.4 93.0455 563.94 93.5057 563.94 94.0682C563.94 94.6307 564.4 95.0909 564.962 95.0909Z" fill="#495057"/>
</g>
<defs>
<filter id="filter0_d_10_246" x="0" y="0" width="736" height="181" filterUnits="userSpaceOnUse" color-interpolation-filters="sRGB">
<feFlood flood-opacity="0" result="BackgroundImageFix"/>
<feColorMatrix in="SourceAlpha" type="matrix" values="0 0 0 0 0 0 0 0 0 0 0 0 0 0 0 0 0 0 127 0" result="hardAlpha"/>
<feMorphology radius="8" operator="erode" in="SourceAlpha" result="effect1_dropShadow_10_246"/>
<feOffset dy="24"/>
<feGaussianBlur stdDeviation="16"/>
<feComposite in2="hardAlpha" operator="out"/>
<feColorMatrix type="matrix" values="0 0 0 0 0 0 0 0 0 0 0 0 0 0 0 0 0 0 0.08 0"/>
<feBlend mode="normal" in2="BackgroundImageFix" result="effect1_dropShadow_10_246"/>
<feBlend mode="normal" in="SourceGraphic" in2="effect1_dropShadow_10_246" result="shape"/>
</filter>
</defs>
</svg>
